{
    "asset" : {
        "generator" : "Khronos glTF Blender I/O v0.9.2",
        "version" : "2.0"
    },
    "scene" : 0,
    "scenes" : [
        {
            "extras" : {
                "glTF2ExportSettings" : {
                    "export_colors" : 1,
                    "export_extras" : 1,
                    "export_format" : "GLTF_SEPARATE",
                    "export_materials" : 1,
                    "export_normals" : 1,
                    "export_selected" : 1,
                    "export_tangents" : 1,
                    "export_texcoords" : 1
                }
            },
            "name" : "Scene",
            "nodes" : [
                0,
                1
            ]
        }
    ],
    "nodes" : [
        {
            "mesh" : 0,
            "name" : "Collider.FL.Sphere",
            "rotation" : [
                0,
                1,
                0,
                -1.6292068494294654e-07
            ],
            "scale" : [
                0.8670419454574585,
                0.8670419454574585,
                0.8670419454574585
            ],
            "translation" : [
                -2.1214427947998047,
                1.0332945585250854,
                -2.3353257179260254
            ]
        },
        {
            "mesh" : 1,
            "name" : "Actor.W_FL",
            "rotation" : [
                0,
                0,
                -0.7071067690849304,
                0.7071068286895752
            ],
            "scale" : [
                2.0348522663116455,
                -2.0348522663116455,
                -2.0348522663116455
            ],
            "translation" : [
                -2.1214427947998047,
                1.0332945585250854,
                -2.3353257179260254
            ]
        }
    ],
    "materials" : [
        {
            "name" : "Material",
            "pbrMetallicRoughness" : {
                "baseColorFactor" : [
                    0.3185393214225769,
                    0.2898390591144562,
                    0.28138843178749084,
                    1
                ],
                "metallicFactor" : 0.800000011920929,
                "roughnessFactor" : 0.20000000298023224
            }
        },
        {
            "name" : "Tile",
            "pbrMetallicRoughness" : {
                "baseColorFactor" : [
                    0.009461700916290283,
                    0.011918378993868828,
                    0.015991583466529846,
                    1
                ],
                "metallicFactor" : 0,
                "roughnessFactor" : 0.800000011920929
            }
        }
    ],
    "meshes" : [
        {
            "name" : "Sphere.002",
            "primitives" : [
                {
                    "attributes" : {
                        "POSITION" : 0,
                        "NORMAL" : 1,
                        "TANGENT" : 2,
                        "TEXCOORD_0" : 3
                    },
                    "indices" : 4
                }
            ]
        },
        {
            "name" : "Cylinder",
            "primitives" : [
                {
                    "attributes" : {
                        "POSITION" : 5,
                        "NORMAL" : 6,
                        "TEXCOORD_0" : 7
                    },
                    "indices" : 8,
                    "material" : 0
                },
                {
                    "attributes" : {
                        "POSITION" : 9,
                        "NORMAL" : 10,
                        "TEXCOORD_0" : 11
                    },
                    "indices" : 12,
                    "material" : 1
                }
            ]
        }
    ],
    "accessors" : [
        {
            "bufferView" : 0,
            "componentType" : 5126,
            "count" : 1984,
            "max" : [
                1,
                0.9999998211860657,
                1.0000003576278687
            ],
            "min" : [
                -1,
                -1.000000238418579,
                -1
            ],
            "type" : "VEC3"
        },
        {
            "bufferView" : 1,
            "componentType" : 5126,
            "count" : 1984,
            "type" : "VEC3"
        },
        {
            "bufferView" : 2,
            "componentType" : 5126,
            "count" : 1984,
            "type" : "VEC4"
        },
        {
            "bufferView" : 3,
            "componentType" : 5126,
            "count" : 1984,
            "type" : "VEC2"
        },
        {
            "bufferView" : 4,
            "componentType" : 5123,
            "count" : 2880,
            "type" : "SCALAR"
        },
        {
            "bufferView" : 5,
            "componentType" : 5126,
            "count" : 419,
            "max" : [
                0.3686380684375763,
                0.24811936914920807,
                0.3686380088329315
            ],
            "min" : [
                -0.36863812804222107,
                -0.24811893701553345,
                -0.36863818764686584
            ],
            "type" : "VEC3"
        },
        {
            "bufferView" : 6,
            "componentType" : 5126,
            "count" : 419,
            "type" : "VEC3"
        },
        {
            "bufferView" : 7,
            "componentType" : 5126,
            "count" : 419,
            "type" : "VEC2"
        },
        {
            "bufferView" : 8,
            "componentType" : 5123,
            "count" : 1626,
            "type" : "SCALAR"
        },
        {
            "bufferView" : 9,
            "componentType" : 5126,
            "count" : 654,
            "max" : [
                0.39864930510520935,
                0.24811936914920807,
                0.3986492455005646
            ],
            "min" : [
                -0.3986493647098541,
                -0.24811893701553345,
                -0.3986494243144989
            ],
            "type" : "VEC3"
        },
        {
            "bufferView" : 10,
            "componentType" : 5126,
            "count" : 654,
            "type" : "VEC3"
        },
        {
            "bufferView" : 11,
            "componentType" : 5126,
            "count" : 654,
            "type" : "VEC2"
        },
        {
            "bufferView" : 12,
            "componentType" : 5123,
            "count" : 1626,
            "type" : "SCALAR"
        }
    ],
    "bufferViews" : [
        {
            "buffer" : 0,
            "byteLength" : 23808,
            "byteOffset" : 0
        },
        {
            "buffer" : 0,
            "byteLength" : 23808,
            "byteOffset" : 23808
        },
        {
            "buffer" : 0,
            "byteLength" : 31744,
            "byteOffset" : 47616
        },
        {
            "buffer" : 0,
            "byteLength" : 15872,
            "byteOffset" : 79360
        },
        {
            "buffer" : 0,
            "byteLength" : 5760,
            "byteOffset" : 95232
        },
        {
            "buffer" : 0,
            "byteLength" : 5028,
            "byteOffset" : 100992
        },
        {
            "buffer" : 0,
            "byteLength" : 5028,
            "byteOffset" : 106020
        },
        {
            "buffer" : 0,
            "byteLength" : 3352,
            "byteOffset" : 111048
        },
        {
            "buffer" : 0,
            "byteLength" : 3252,
            "byteOffset" : 114400
        },
        {
            "buffer" : 0,
            "byteLength" : 7848,
            "byteOffset" : 117652
        },
        {
            "buffer" : 0,
            "byteLength" : 7848,
            "byteOffset" : 125500
        },
        {
            "buffer" : 0,
            "byteLength" : 5232,
            "byteOffset" : 133348
        },
        {
            "buffer" : 0,
            "byteLength" : 3252,
            "byteOffset" : 138580
        }
    ],
    "buffers" : [
        {
            "byteLength" : 141832,
            "uri" : "front_left.bin"
        }
    ]
}
