{
    "asset" : {
        "copyright" : "Dr.Santi Nuratch",
        "generator" : "Khronos glTF Blender I/O v0.9.2",
        "version" : "2.0"
    },
    "scene" : 0,
    "scenes" : [
        {
            "extras" : {
                "glTF2ExportSettings" : {
                    "export_apply" : 0,
                    "export_copyright" : "Dr.Santi Nuratch",
                    "export_extras" : 1,
                    "export_format" : "GLTF_SEPARATE",
                    "export_selected" : 1
                }
            },
            "name" : "Scene",
            "nodes" : [
                0,
                1
            ]
        }
    ],
    "nodes" : [
        {
            "extras" : {
                "segments" : 32
            },
            "mesh" : 0,
            "name" : "Actor.Wheel.Front.Cylinder",
            "scale" : [
                1.2734582424163818,
                1.2734582424163818,
                1.2734582424163818
            ],
            "translation" : [
                0.0036713946610689163,
                0.4345412254333496,
                1.5102941989898682
            ]
        },
        {
            "mesh" : 1,
            "name" : "Collider.Wheel.Front.Sphere",
            "rotation" : [
                0,
                0,
                -0.7071067690849304,
                0.7071068286895752
            ],
            "scale" : [
                0.28239917755126953,
                0.28239917755126953,
                0.28239917755126953
            ],
            "translation" : [
                0.0036713946610689163,
                0.4338298738002777,
                1.5102941989898682
            ]
        }
    ],
    "materials" : [
        {
            "name" : "Black",
            "pbrMetallicRoughness" : {
                "baseColorFactor" : [
                    0.00901828519999981,
                    0.00901828519999981,
                    0.00901828519999981,
                    1
                ],
                "metallicFactor" : 0,
                "roughnessFactor" : 0.5
            }
        },
        {
            "name" : "Dark-Graan",
            "pbrMetallicRoughness" : {
                "baseColorFactor" : [
                    0.005698502063751221,
                    0.06371743232011795,
                    0.0043626935221254826,
                    1
                ],
                "metallicFactor" : 0,
                "roughnessFactor" : 0.8999999761581421
            }
        }
    ],
    "meshes" : [
        {
            "name" : "Cylinder.006",
            "primitives" : [
                {
                    "attributes" : {
                        "POSITION" : 0,
                        "NORMAL" : 1,
                        "TEXCOORD_0" : 2
                    },
                    "indices" : 3,
                    "material" : 0
                },
                {
                    "attributes" : {
                        "POSITION" : 4,
                        "NORMAL" : 5,
                        "TEXCOORD_0" : 6
                    },
                    "indices" : 7,
                    "material" : 1
                }
            ]
        },
        {
            "name" : "Sphere.002",
            "primitives" : [
                {
                    "attributes" : {
                        "POSITION" : 8,
                        "NORMAL" : 9,
                        "TEXCOORD_0" : 10
                    },
                    "indices" : 11
                }
            ]
        }
    ],
    "accessors" : [
        {
            "bufferView" : 0,
            "componentType" : 5126,
            "count" : 640,
            "max" : [
                0.10626471042633057,
                0.22433756291866302,
                0.22433732450008392
            ],
            "min" : [
                -0.10626456141471863,
                -0.22433756291866302,
                -0.22433778643608093
            ],
            "type" : "VEC3"
        },
        {
            "bufferView" : 1,
            "componentType" : 5126,
            "count" : 640,
            "type" : "VEC3"
        },
        {
            "bufferView" : 2,
            "componentType" : 5126,
            "count" : 640,
            "type" : "VEC2"
        },
        {
            "bufferView" : 3,
            "componentType" : 5123,
            "count" : 1044,
            "type" : "SCALAR"
        },
        {
            "bufferView" : 4,
            "componentType" : 5126,
            "count" : 64,
            "max" : [
                0.08178427815437317,
                0.22433756291866302,
                0.22433732450008392
            ],
            "min" : [
                -0.08178411424160004,
                -0.22433756291866302,
                -0.22433778643608093
            ],
            "type" : "VEC3"
        },
        {
            "bufferView" : 5,
            "componentType" : 5126,
            "count" : 64,
            "type" : "VEC3"
        },
        {
            "bufferView" : 6,
            "componentType" : 5126,
            "count" : 64,
            "type" : "VEC2"
        },
        {
            "bufferView" : 7,
            "componentType" : 5123,
            "count" : 96,
            "type" : "SCALAR"
        },
        {
            "bufferView" : 8,
            "componentType" : 5126,
            "count" : 1984,
            "max" : [
                1.000000238418579,
                1,
                1.0000003576278687
            ],
            "min" : [
                -0.9999998211860657,
                -1,
                -1
            ],
            "type" : "VEC3"
        },
        {
            "bufferView" : 9,
            "componentType" : 5126,
            "count" : 1984,
            "type" : "VEC3"
        },
        {
            "bufferView" : 10,
            "componentType" : 5126,
            "count" : 1984,
            "type" : "VEC2"
        },
        {
            "bufferView" : 11,
            "componentType" : 5123,
            "count" : 2880,
            "type" : "SCALAR"
        }
    ],
    "bufferViews" : [
        {
            "buffer" : 0,
            "byteLength" : 7680,
            "byteOffset" : 0
        },
        {
            "buffer" : 0,
            "byteLength" : 7680,
            "byteOffset" : 7680
        },
        {
            "buffer" : 0,
            "byteLength" : 5120,
            "byteOffset" : 15360
        },
        {
            "buffer" : 0,
            "byteLength" : 2088,
            "byteOffset" : 20480
        },
        {
            "buffer" : 0,
            "byteLength" : 768,
            "byteOffset" : 22568
        },
        {
            "buffer" : 0,
            "byteLength" : 768,
            "byteOffset" : 23336
        },
        {
            "buffer" : 0,
            "byteLength" : 512,
            "byteOffset" : 24104
        },
        {
            "buffer" : 0,
            "byteLength" : 192,
            "byteOffset" : 24616
        },
        {
            "buffer" : 0,
            "byteLength" : 23808,
            "byteOffset" : 24808
        },
        {
            "buffer" : 0,
            "byteLength" : 23808,
            "byteOffset" : 48616
        },
        {
            "buffer" : 0,
            "byteLength" : 15872,
            "byteOffset" : 72424
        },
        {
            "buffer" : 0,
            "byteLength" : 5760,
            "byteOffset" : 88296
        }
    ],
    "buffers" : [
        {
            "byteLength" : 94056,
            "uri" : "bot_wheel_F.bin"
        }
    ]
}
