{
    "asset" : {
        "copyright" : "Dr.Santi Nuratch",
        "generator" : "Khronos glTF Blender I/O v0.9.2",
        "version" : "2.0"
    },
    "scene" : 0,
    "scenes" : [
        {
            "extras" : {
                "glTF2ExportSettings" : {
                    "export_apply" : 0,
                    "export_copyright" : "Dr.Santi Nuratch",
                    "export_extras" : 1,
                    "export_format" : "GLTF_SEPARATE",
                    "export_selected" : 1
                }
            },
            "name" : "Scene",
            "nodes" : [
                0,
                1
            ]
        }
    ],
    "nodes" : [
        {
            "mesh" : 0,
            "name" : "Actor.Wheel.R",
            "scale" : [
                1.02199125289917,
                1.02199125289917,
                1.02199125289917
            ],
            "translation" : [
                -1.4456154108047485,
                1.0268688201904297,
                0
            ]
        },
        {
            "mesh" : 1,
            "name" : "Collider.Wheel.R.Sphere",
            "rotation" : [
                0,
                0,
                -0.7071067690849304,
                0.7071068286895752
            ],
            "scale" : [
                0.8981376886367798,
                0.8981376886367798,
                0.8981376886367798
            ],
            "translation" : [
                -1.5,
                1.0383837223052979,
                0
            ]
        }
    ],
    "materials" : [
        {
            "name" : "Wheel.Black.002",
            "pbrMetallicRoughness" : {
                "baseColorFactor" : [
                    0.0036421676632016897,
                    0.0036421676632016897,
                    0.0036421676632016897,
                    1
                ],
                "metallicFactor" : 0,
                "roughnessFactor" : 0.800000011920929
            }
        },
        {
            "name" : "Wheel.Yellow.002",
            "pbrMetallicRoughness" : {
                "baseColorFactor" : [
                    0.8000000715255737,
                    0.6283944249153137,
                    0.04846397042274475,
                    1
                ],
                "metallicFactor" : 0,
                "roughnessFactor" : 0.5
            }
        }
    ],
    "meshes" : [
        {
            "name" : "Circle.008",
            "primitives" : [
                {
                    "attributes" : {
                        "POSITION" : 0,
                        "NORMAL" : 1,
                        "TEXCOORD_0" : 2,
                        "JOINTS_0" : 3,
                        "WEIGHTS_0" : 4
                    },
                    "indices" : 5,
                    "material" : 0
                },
                {
                    "attributes" : {
                        "POSITION" : 6,
                        "NORMAL" : 7,
                        "TEXCOORD_0" : 8,
                        "JOINTS_0" : 9,
                        "WEIGHTS_0" : 10
                    },
                    "indices" : 11,
                    "material" : 1
                }
            ]
        },
        {
            "name" : "Sphere.001",
            "primitives" : [
                {
                    "attributes" : {
                        "POSITION" : 12,
                        "NORMAL" : 13,
                        "TEXCOORD_0" : 14
                    },
                    "indices" : 15
                }
            ]
        }
    ],
    "accessors" : [
        {
            "bufferView" : 0,
            "componentType" : 5126,
            "count" : 4992,
            "max" : [
                0.34238579869270325,
                0.8540652394294739,
                0.8540654182434082
            ],
            "min" : [
                -0.2475278079509735,
                -0.8540654182434082,
                -0.8540651798248291
            ],
            "type" : "VEC3"
        },
        {
            "bufferView" : 1,
            "componentType" : 5126,
            "count" : 4992,
            "type" : "VEC3"
        },
        {
            "bufferView" : 2,
            "componentType" : 5126,
            "count" : 4992,
            "type" : "VEC2"
        },
        {
            "bufferView" : 3,
            "componentType" : 5123,
            "count" : 4992,
            "type" : "VEC4"
        },
        {
            "bufferView" : 4,
            "componentType" : 5126,
            "count" : 4992,
            "type" : "VEC4"
        },
        {
            "bufferView" : 5,
            "componentType" : 5123,
            "count" : 8448,
            "type" : "SCALAR"
        },
        {
            "bufferView" : 6,
            "componentType" : 5126,
            "count" : 3243,
            "max" : [
                0.4460994303226471,
                0.8060712814331055,
                0.8060712814331055
            ],
            "min" : [
                -0.3246021866798401,
                -0.8060712814331055,
                -0.8060712814331055
            ],
            "type" : "VEC3"
        },
        {
            "bufferView" : 7,
            "componentType" : 5126,
            "count" : 3243,
            "type" : "VEC3"
        },
        {
            "bufferView" : 8,
            "componentType" : 5126,
            "count" : 3243,
            "type" : "VEC2"
        },
        {
            "bufferView" : 9,
            "componentType" : 5123,
            "count" : 3243,
            "type" : "VEC4"
        },
        {
            "bufferView" : 10,
            "componentType" : 5126,
            "count" : 3243,
            "type" : "VEC4"
        },
        {
            "bufferView" : 11,
            "componentType" : 5123,
            "count" : 5658,
            "type" : "SCALAR"
        },
        {
            "bufferView" : 12,
            "componentType" : 5126,
            "count" : 1984,
            "max" : [
                1.000000238418579,
                1,
                1.0000003576278687
            ],
            "min" : [
                -0.9999998211860657,
                -1,
                -1
            ],
            "type" : "VEC3"
        },
        {
            "bufferView" : 13,
            "componentType" : 5126,
            "count" : 1984,
            "type" : "VEC3"
        },
        {
            "bufferView" : 14,
            "componentType" : 5126,
            "count" : 1984,
            "type" : "VEC2"
        },
        {
            "bufferView" : 15,
            "componentType" : 5123,
            "count" : 2880,
            "type" : "SCALAR"
        }
    ],
    "bufferViews" : [
        {
            "buffer" : 0,
            "byteLength" : 59904,
            "byteOffset" : 0
        },
        {
            "buffer" : 0,
            "byteLength" : 59904,
            "byteOffset" : 59904
        },
        {
            "buffer" : 0,
            "byteLength" : 39936,
            "byteOffset" : 119808
        },
        {
            "buffer" : 0,
            "byteLength" : 39936,
            "byteOffset" : 159744
        },
        {
            "buffer" : 0,
            "byteLength" : 79872,
            "byteOffset" : 199680
        },
        {
            "buffer" : 0,
            "byteLength" : 16896,
            "byteOffset" : 279552
        },
        {
            "buffer" : 0,
            "byteLength" : 38916,
            "byteOffset" : 296448
        },
        {
            "buffer" : 0,
            "byteLength" : 38916,
            "byteOffset" : 335364
        },
        {
            "buffer" : 0,
            "byteLength" : 25944,
            "byteOffset" : 374280
        },
        {
            "buffer" : 0,
            "byteLength" : 25944,
            "byteOffset" : 400224
        },
        {
            "buffer" : 0,
            "byteLength" : 51888,
            "byteOffset" : 426168
        },
        {
            "buffer" : 0,
            "byteLength" : 11316,
            "byteOffset" : 478056
        },
        {
            "buffer" : 0,
            "byteLength" : 23808,
            "byteOffset" : 489372
        },
        {
            "buffer" : 0,
            "byteLength" : 23808,
            "byteOffset" : 513180
        },
        {
            "buffer" : 0,
            "byteLength" : 15872,
            "byteOffset" : 536988
        },
        {
            "buffer" : 0,
            "byteLength" : 5760,
            "byteOffset" : 552860
        }
    ],
    "buffers" : [
        {
            "byteLength" : 558620,
            "uri" : "bot_wheel_R.bin"
        }
    ]
}
