{
    "asset" : {
        "copyright" : "Dr.Santi Nuratch",
        "generator" : "Khronos Blender glTF 2.0 I/O",
        "version" : "2.0"
    },
    "scene" : 0,
    "scenes" : [
        {
            "extras" : {
                "glTF2ExportSettings" : {
                    "export_apply" : 1,
                    "export_copyright" : "Dr.Santi Nuratch",
                    "export_extras" : 1,
                    "export_format" : "GLTF_SEPARATE",
                    "export_selected" : 1
                }
            },
            "name" : "Scene",
            "nodes" : [
                0,
                1,
                2,
                3,
                4,
                5
            ]
        }
    ],
    "nodes" : [
        {
            "mesh" : 0,
            "name" : "ColliderCylinder.000",
            "scale" : [
                0.996369481086731,
                0.14685268700122833,
                0.996369481086731
            ],
            "translation" : [
                -0.0007987320423126221,
                0.15120038390159607,
                0
            ]
        },
        {
            "mesh" : 1,
            "name" : "ColliderCylinder.001",
            "scale" : [
                0.19921040534973145,
                0.044592440128326416,
                0.19921040534973145
            ],
            "translation" : [
                -0.0007987320423126221,
                0.3485668897628784,
                0
            ]
        },
        {
            "mesh" : 2,
            "name" : "Actor",
            "translation" : [
                0,
                0.5986219048500061,
                -0.11136705428361893
            ]
        },
        {
            "mesh" : 3,
            "name" : "ColliderSphere.000",
            "scale" : [
                0.2390947937965393,
                0.2390947937965393,
                0.2390947937965393
            ],
            "translation" : [
                0,
                0.6417666077613831,
                -0.08952406048774719
            ]
        },
        {
            "mesh" : 4,
            "name" : "ColliderCube.000",
            "scale" : [
                0.04031479358673096,
                0.08046721667051315,
                0.04031479358673096
            ],
            "translation" : [
                0.28193199634552,
                0.6491410136222839,
                -0.21693375706672668
            ]
        },
        {
            "mesh" : 5,
            "name" : "ColliderCube.001",
            "scale" : [
                0.04031479358673096,
                0.08046721667051315,
                0.04031479358673096
            ],
            "translation" : [
                -0.28023648262023926,
                0.6491410136222839,
                -0.21693375706672668
            ]
        }
    ],
    "materials" : [
        {
            "name" : "Material.001",
            "normalTexture" : {
                "index" : 0,
                "scale" : 0.5,
                "texCoord" : 0
            },
            "pbrMetallicRoughness" : {
                "baseColorTexture" : {
                    "index" : 1,
                    "texCoord" : 0
                },
                "metallicFactor" : 0,
                "roughnessFactor" : 0.5
            }
        }
    ],
    "meshes" : [
        {
            "name" : "Cylinder.002",
            "primitives" : [
                {
                    "attributes" : {
                        "POSITION" : 0,
                        "NORMAL" : 1,
                        "TEXCOORD_0" : 2
                    },
                    "indices" : 3
                }
            ]
        },
        {
            "name" : "Cylinder.002",
            "primitives" : [
                {
                    "attributes" : {
                        "POSITION" : 4,
                        "NORMAL" : 5,
                        "TEXCOORD_0" : 6
                    },
                    "indices" : 7
                }
            ]
        },
        {
            "name" : "Suzanne.001",
            "primitives" : [
                {
                    "attributes" : {
                        "POSITION" : 8,
                        "NORMAL" : 9,
                        "TEXCOORD_0" : 10
                    },
                    "indices" : 11,
                    "material" : 0
                }
            ]
        },
        {
            "name" : "Sphere.001",
            "primitives" : [
                {
                    "attributes" : {
                        "POSITION" : 12,
                        "NORMAL" : 13,
                        "TEXCOORD_0" : 14
                    },
                    "indices" : 15
                }
            ]
        },
        {
            "name" : "Cube.002",
            "primitives" : [
                {
                    "attributes" : {
                        "POSITION" : 16,
                        "NORMAL" : 17,
                        "TEXCOORD_0" : 18
                    },
                    "indices" : 19
                }
            ]
        },
        {
            "name" : "Cube.002",
            "primitives" : [
                {
                    "attributes" : {
                        "POSITION" : 20,
                        "NORMAL" : 21,
                        "TEXCOORD_0" : 22
                    },
                    "indices" : 23
                }
            ]
        }
    ],
    "textures" : [
        {
            "source" : 0
        },
        {
            "source" : 1
        }
    ],
    "images" : [
        {
            "mimeType" : "image/png",
            "name" : "wood01_normal.png",
            "uri" : "wood01_normal.png"
        },
        {
            "mimeType" : "image/png",
            "name" : "wood01_diffuse.png",
            "uri" : "wood01_diffuse.png"
        }
    ],
    "accessors" : [
        {
            "bufferView" : 0,
            "componentType" : 5126,
            "count" : 192,
            "max" : [
                1,
                1,
                1
            ],
            "min" : [
                -1,
                -1,
                -1
            ],
            "type" : "VEC3"
        },
        {
            "bufferView" : 1,
            "componentType" : 5126,
            "count" : 192,
            "type" : "VEC3"
        },
        {
            "bufferView" : 2,
            "componentType" : 5126,
            "count" : 192,
            "type" : "VEC2"
        },
        {
            "bufferView" : 3,
            "componentType" : 5123,
            "count" : 372,
            "type" : "SCALAR"
        },
        {
            "bufferView" : 4,
            "componentType" : 5126,
            "count" : 192,
            "max" : [
                1,
                1,
                1
            ],
            "min" : [
                -1,
                -1,
                -1
            ],
            "type" : "VEC3"
        },
        {
            "bufferView" : 5,
            "componentType" : 5126,
            "count" : 192,
            "type" : "VEC3"
        },
        {
            "bufferView" : 6,
            "componentType" : 5126,
            "count" : 192,
            "type" : "VEC2"
        },
        {
            "bufferView" : 7,
            "componentType" : 5123,
            "count" : 372,
            "type" : "SCALAR"
        },
        {
            "bufferView" : 8,
            "componentType" : 5126,
            "count" : 1919,
            "max" : [
                0.9992010593414307,
                0.23304210603237152,
                1.111366868019104
            ],
            "min" : [
                -1.0007985830307007,
                -0.5872540473937988,
                -0.8886328339576721
            ],
            "type" : "VEC3"
        },
        {
            "bufferView" : 9,
            "componentType" : 5126,
            "count" : 1919,
            "type" : "VEC3"
        },
        {
            "bufferView" : 10,
            "componentType" : 5126,
            "count" : 1919,
            "type" : "VEC2"
        },
        {
            "bufferView" : 11,
            "componentType" : 5123,
            "count" : 7788,
            "type" : "SCALAR"
        },
        {
            "bufferView" : 12,
            "componentType" : 5126,
            "count" : 1984,
            "max" : [
                1.000000238418579,
                1,
                1.0000003576278687
            ],
            "min" : [
                -0.9999998211860657,
                -1,
                -1
            ],
            "type" : "VEC3"
        },
        {
            "bufferView" : 13,
            "componentType" : 5126,
            "count" : 1984,
            "type" : "VEC3"
        },
        {
            "bufferView" : 14,
            "componentType" : 5126,
            "count" : 1984,
            "type" : "VEC2"
        },
        {
            "bufferView" : 15,
            "componentType" : 5123,
            "count" : 2880,
            "type" : "SCALAR"
        },
        {
            "bufferView" : 16,
            "componentType" : 5126,
            "count" : 24,
            "max" : [
                1,
                1,
                1
            ],
            "min" : [
                -1,
                -1,
                -1
            ],
            "type" : "VEC3"
        },
        {
            "bufferView" : 17,
            "componentType" : 5126,
            "count" : 24,
            "type" : "VEC3"
        },
        {
            "bufferView" : 18,
            "componentType" : 5126,
            "count" : 24,
            "type" : "VEC2"
        },
        {
            "bufferView" : 19,
            "componentType" : 5123,
            "count" : 36,
            "type" : "SCALAR"
        },
        {
            "bufferView" : 20,
            "componentType" : 5126,
            "count" : 24,
            "max" : [
                1,
                1,
                1
            ],
            "min" : [
                -1,
                -1,
                -1
            ],
            "type" : "VEC3"
        },
        {
            "bufferView" : 21,
            "componentType" : 5126,
            "count" : 24,
            "type" : "VEC3"
        },
        {
            "bufferView" : 22,
            "componentType" : 5126,
            "count" : 24,
            "type" : "VEC2"
        },
        {
            "bufferView" : 23,
            "componentType" : 5123,
            "count" : 36,
            "type" : "SCALAR"
        }
    ],
    "bufferViews" : [
        {
            "buffer" : 0,
            "byteLength" : 2304,
            "byteOffset" : 0
        },
        {
            "buffer" : 0,
            "byteLength" : 2304,
            "byteOffset" : 2304
        },
        {
            "buffer" : 0,
            "byteLength" : 1536,
            "byteOffset" : 4608
        },
        {
            "buffer" : 0,
            "byteLength" : 744,
            "byteOffset" : 6144
        },
        {
            "buffer" : 0,
            "byteLength" : 2304,
            "byteOffset" : 6888
        },
        {
            "buffer" : 0,
            "byteLength" : 2304,
            "byteOffset" : 9192
        },
        {
            "buffer" : 0,
            "byteLength" : 1536,
            "byteOffset" : 11496
        },
        {
            "buffer" : 0,
            "byteLength" : 744,
            "byteOffset" : 13032
        },
        {
            "buffer" : 0,
            "byteLength" : 23028,
            "byteOffset" : 13776
        },
        {
            "buffer" : 0,
            "byteLength" : 23028,
            "byteOffset" : 36804
        },
        {
            "buffer" : 0,
            "byteLength" : 15352,
            "byteOffset" : 59832
        },
        {
            "buffer" : 0,
            "byteLength" : 15576,
            "byteOffset" : 75184
        },
        {
            "buffer" : 0,
            "byteLength" : 23808,
            "byteOffset" : 90760
        },
        {
            "buffer" : 0,
            "byteLength" : 23808,
            "byteOffset" : 114568
        },
        {
            "buffer" : 0,
            "byteLength" : 15872,
            "byteOffset" : 138376
        },
        {
            "buffer" : 0,
            "byteLength" : 5760,
            "byteOffset" : 154248
        },
        {
            "buffer" : 0,
            "byteLength" : 288,
            "byteOffset" : 160008
        },
        {
            "buffer" : 0,
            "byteLength" : 288,
            "byteOffset" : 160296
        },
        {
            "buffer" : 0,
            "byteLength" : 192,
            "byteOffset" : 160584
        },
        {
            "buffer" : 0,
            "byteLength" : 72,
            "byteOffset" : 160776
        },
        {
            "buffer" : 0,
            "byteLength" : 288,
            "byteOffset" : 160848
        },
        {
            "buffer" : 0,
            "byteLength" : 288,
            "byteOffset" : 161136
        },
        {
            "buffer" : 0,
            "byteLength" : 192,
            "byteOffset" : 161424
        },
        {
            "buffer" : 0,
            "byteLength" : 72,
            "byteOffset" : 161616
        }
    ],
    "buffers" : [
        {
            "byteLength" : 161688,
            "uri" : "cartwheel002.bin"
        }
    ]
}
