{
    "asset" : {
        "copyright" : "Dr.Santi Nuratch",
        "generator" : "Khronos Blender glTF 2.0 I/O",
        "version" : "2.0"
    },
    "scene" : 0,
    "scenes" : [
        {
            "extras" : {
                "glTF2ExportSettings" : {
                    "export_apply" : 1,
                    "export_copyright" : "Dr.Santi Nuratch",
                    "export_extras" : 1,
                    "export_format" : "GLTF_SEPARATE",
                    "export_selected" : 1
                }
            },
            "name" : "Scene",
            "nodes" : [
                0,
                1,
                2
            ]
        }
    ],
    "nodes" : [
        {
            "mesh" : 0,
            "name" : "ActorWheel",
            "translation" : [
                0.503186821937561,
                4.436975479125977,
                -0.6992634534835815
            ]
        },
        {
            "mesh" : 1,
            "name" : "CylinderCollider.001",
            "rotation" : [
                0,
                0,
                -0.7071068286895752,
                0.7071068286895752
            ],
            "scale" : [
                0.19501973688602448,
                0.06427393853664398,
                0.19501973688602448
            ],
            "translation" : [
                0.660364031791687,
                4.436975479125977,
                -0.6992634534835815
            ]
        },
        {
            "extras" : {
                "segments" : 32
            },
            "mesh" : 2,
            "name" : "CylinderCollider.002",
            "rotation" : [
                0,
                0,
                -0.7071068286895752,
                0.7071068286895752
            ],
            "scale" : [
                0.9987752437591553,
                0.14180923998355865,
                0.9987752437591553
            ],
            "translation" : [
                0.5007460713386536,
                4.436975479125977,
                -0.6992634534835815
            ]
        }
    ],
    "materials" : [
        {
            "name" : "Material.001",
            "normalTexture" : {
                "index" : 0,
                "scale" : 0.5,
                "texCoord" : 0
            },
            "pbrMetallicRoughness" : {
                "baseColorTexture" : {
                    "index" : 1,
                    "texCoord" : 0
                },
                "metallicFactor" : 0,
                "roughnessFactor" : 0.5
            }
        },
        {
            "name" : "Black",
            "pbrMetallicRoughness" : {
                "baseColorFactor" : [
                    0.009018231183290482,
                    0.009018231183290482,
                    0.009018231183290482,
                    1
                ],
                "metallicFactor" : 0,
                "roughnessFactor" : 0.9818181991577148
            }
        },
        {
            "name" : "Collider",
            "pbrMetallicRoughness" : {
                "baseColorFactor" : [
                    0.003758177859708667,
                    0.8000000715255737,
                    0.014006491750478745,
                    1
                ],
                "metallicFactor" : 0,
                "roughnessFactor" : 0.5
            }
        }
    ],
    "meshes" : [
        {
            "name" : "Cylinder.000",
            "primitives" : [
                {
                    "attributes" : {
                        "POSITION" : 0,
                        "NORMAL" : 1,
                        "TEXCOORD_0" : 2
                    },
                    "indices" : 3,
                    "material" : 0
                },
                {
                    "attributes" : {
                        "POSITION" : 4,
                        "NORMAL" : 5,
                        "TEXCOORD_0" : 6
                    },
                    "indices" : 7,
                    "material" : 1
                }
            ]
        },
        {
            "name" : "Cylinder.000",
            "primitives" : [
                {
                    "attributes" : {
                        "POSITION" : 8,
                        "NORMAL" : 9,
                        "TEXCOORD_0" : 10
                    },
                    "indices" : 11,
                    "material" : 2
                }
            ]
        },
        {
            "name" : "Cylinder.000",
            "primitives" : [
                {
                    "attributes" : {
                        "POSITION" : 12,
                        "NORMAL" : 13,
                        "TEXCOORD_0" : 14
                    },
                    "indices" : 11,
                    "material" : 2
                }
            ]
        }
    ],
    "textures" : [
        {
            "source" : 0
        },
        {
            "source" : 1
        }
    ],
    "images" : [
        {
            "mimeType" : "image/png",
            "name" : "wood01_normal.png",
            "uri" : "wood01_normal.png"
        },
        {
            "mimeType" : "image/png",
            "name" : "wood01_diffuse.png",
            "uri" : "wood01_diffuse.png"
        }
    ],
    "accessors" : [
        {
            "bufferView" : 0,
            "componentType" : 5126,
            "count" : 1363,
            "max" : [
                0.22706282138824463,
                1.0036729574203491,
                0.9999998211860657
            ],
            "min" : [
                -0.1515585333108902,
                -0.9963268637657166,
                -1
            ],
            "type" : "VEC3"
        },
        {
            "bufferView" : 1,
            "componentType" : 5126,
            "count" : 1363,
            "type" : "VEC3"
        },
        {
            "bufferView" : 2,
            "componentType" : 5126,
            "count" : 1363,
            "type" : "VEC2"
        },
        {
            "bufferView" : 3,
            "componentType" : 5123,
            "count" : 4692,
            "type" : "SCALAR"
        },
        {
            "bufferView" : 4,
            "componentType" : 5126,
            "count" : 72,
            "max" : [
                0.07500609010457993,
                1.0036729574203491,
                0.9999998211860657
            ],
            "min" : [
                -0.09845789521932602,
                -0.9963268637657166,
                -1
            ],
            "type" : "VEC3"
        },
        {
            "bufferView" : 5,
            "componentType" : 5126,
            "count" : 72,
            "type" : "VEC3"
        },
        {
            "bufferView" : 6,
            "componentType" : 5126,
            "count" : 72,
            "type" : "VEC2"
        },
        {
            "bufferView" : 7,
            "componentType" : 5123,
            "count" : 192,
            "type" : "SCALAR"
        },
        {
            "bufferView" : 8,
            "componentType" : 5126,
            "count" : 1536,
            "max" : [
                1.0072786808013916,
                1.006856918334961,
                1.0072786808013916
            ],
            "min" : [
                -1.0072786808013916,
                -1.006856918334961,
                -1.0072786808013916
            ],
            "type" : "VEC3"
        },
        {
            "bufferView" : 9,
            "componentType" : 5126,
            "count" : 1536,
            "type" : "VEC3"
        },
        {
            "bufferView" : 10,
            "componentType" : 5126,
            "count" : 1536,
            "type" : "VEC2"
        },
        {
            "bufferView" : 11,
            "componentType" : 5123,
            "count" : 2304,
            "type" : "SCALAR"
        },
        {
            "bufferView" : 12,
            "componentType" : 5126,
            "count" : 1536,
            "max" : [
                1.0072786808013916,
                1.006856918334961,
                1.0072786808013916
            ],
            "min" : [
                -1.0072786808013916,
                -1.006856918334961,
                -1.0072786808013916
            ],
            "type" : "VEC3"
        },
        {
            "bufferView" : 13,
            "componentType" : 5126,
            "count" : 1536,
            "type" : "VEC3"
        },
        {
            "bufferView" : 14,
            "componentType" : 5126,
            "count" : 1536,
            "type" : "VEC2"
        }
    ],
    "bufferViews" : [
        {
            "buffer" : 0,
            "byteLength" : 16356,
            "byteOffset" : 0
        },
        {
            "buffer" : 0,
            "byteLength" : 16356,
            "byteOffset" : 16356
        },
        {
            "buffer" : 0,
            "byteLength" : 10904,
            "byteOffset" : 32712
        },
        {
            "buffer" : 0,
            "byteLength" : 9384,
            "byteOffset" : 43616
        },
        {
            "buffer" : 0,
            "byteLength" : 864,
            "byteOffset" : 53000
        },
        {
            "buffer" : 0,
            "byteLength" : 864,
            "byteOffset" : 53864
        },
        {
            "buffer" : 0,
            "byteLength" : 576,
            "byteOffset" : 54728
        },
        {
            "buffer" : 0,
            "byteLength" : 384,
            "byteOffset" : 55304
        },
        {
            "buffer" : 0,
            "byteLength" : 18432,
            "byteOffset" : 55688
        },
        {
            "buffer" : 0,
            "byteLength" : 18432,
            "byteOffset" : 74120
        },
        {
            "buffer" : 0,
            "byteLength" : 12288,
            "byteOffset" : 92552
        },
        {
            "buffer" : 0,
            "byteLength" : 4608,
            "byteOffset" : 104840
        },
        {
            "buffer" : 0,
            "byteLength" : 18432,
            "byteOffset" : 109448
        },
        {
            "buffer" : 0,
            "byteLength" : 18432,
            "byteOffset" : 127880
        },
        {
            "buffer" : 0,
            "byteLength" : 12288,
            "byteOffset" : 146312
        }
    ],
    "buffers" : [
        {
            "byteLength" : 158600,
            "uri" : "cartwheel001.bin"
        }
    ]
}
