{
    "asset" : {
        "generator" : "Khronos Blender glTF 2.0 I/O",
        "version" : "2.0"
    },
    "scene" : 0,
    "scenes" : [
        {
            "extras" : {
                "glTF2ExportSettings" : {
                    "export_apply" : 1,
                    "export_extras" : 1,
                    "export_format" : "GLTF_SEPARATE",
                    "export_selected" : 1
                }
            },
            "name" : "Scene",
            "nodes" : [
                0,
                1
            ]
        }
    ],
    "nodes" : [
        {
            "mesh" : 0,
            "name" : "Actor",
            "translation" : [
                0.00019997358322143555,
                0.6000000238418579,
                0
            ]
        },
        {
            "mesh" : 1,
            "name" : "Collider_Cube",
            "scale" : [
                1,
                0.16079950332641602,
                1
            ],
            "translation" : [
                0.008702844381332397,
                0.19862860441207886,
                0
            ]
        }
    ],
    "materials" : [
        {
            "name" : "Material",
            "pbrMetallicRoughness" : {
                "baseColorFactor" : [
                    0.8006559014320374,
                    0.0909174308180809,
                    0,
                    1
                ],
                "metallicFactor" : 0,
                "roughnessFactor" : 0.5
            }
        },
        {
            "name" : "Material.002",
            "pbrMetallicRoughness" : {
                "baseColorFactor" : [
                    0.8000000715255737,
                    0.6483924388885498,
                    0.4700283408164978,
                    1
                ],
                "metallicFactor" : 0,
                "roughnessFactor" : 0.5
            }
        }
    ],
    "meshes" : [
        {
            "name" : "Cube.008",
            "primitives" : [
                {
                    "attributes" : {
                        "POSITION" : 0,
                        "NORMAL" : 1,
                        "TEXCOORD_0" : 2
                    },
                    "indices" : 3,
                    "material" : 0
                },
                {
                    "attributes" : {
                        "POSITION" : 4,
                        "NORMAL" : 5,
                        "TEXCOORD_0" : 6
                    },
                    "indices" : 7,
                    "material" : 1
                }
            ]
        },
        {
            "name" : "Cube.008",
            "primitives" : [
                {
                    "attributes" : {
                        "POSITION" : 8,
                        "NORMAL" : 9,
                        "TEXCOORD_0" : 10
                    },
                    "indices" : 11
                }
            ]
        }
    ],
    "accessors" : [
        {
            "bufferView" : 0,
            "componentType" : 5126,
            "count" : 714,
            "max" : [
                0.9999650120735168,
                2.1128106117248535,
                1.0000001192092896
            ],
            "min" : [
                -1.0001026391983032,
                -0.5353366136550903,
                -1.0000001192092896
            ],
            "type" : "VEC3"
        },
        {
            "bufferView" : 1,
            "componentType" : 5126,
            "count" : 714,
            "type" : "VEC3"
        },
        {
            "bufferView" : 2,
            "componentType" : 5126,
            "count" : 714,
            "type" : "VEC2"
        },
        {
            "bufferView" : 3,
            "componentType" : 5123,
            "count" : 2400,
            "type" : "SCALAR"
        },
        {
            "bufferView" : 4,
            "componentType" : 5126,
            "count" : 232,
            "max" : [
                0.5618932843208313,
                1.5603333711624146,
                0.5621479749679565
            ],
            "min" : [
                -0.5624022483825684,
                -0.20666849613189697,
                -0.5621479153633118
            ],
            "type" : "VEC3"
        },
        {
            "bufferView" : 5,
            "componentType" : 5126,
            "count" : 232,
            "type" : "VEC3"
        },
        {
            "bufferView" : 6,
            "componentType" : 5126,
            "count" : 232,
            "type" : "VEC2"
        },
        {
            "bufferView" : 7,
            "componentType" : 5123,
            "count" : 576,
            "type" : "SCALAR"
        },
        {
            "bufferView" : 8,
            "componentType" : 5126,
            "count" : 24,
            "max" : [
                1,
                1,
                1
            ],
            "min" : [
                -1,
                -1,
                -1
            ],
            "type" : "VEC3"
        },
        {
            "bufferView" : 9,
            "componentType" : 5126,
            "count" : 24,
            "type" : "VEC3"
        },
        {
            "bufferView" : 10,
            "componentType" : 5126,
            "count" : 24,
            "type" : "VEC2"
        },
        {
            "bufferView" : 11,
            "componentType" : 5123,
            "count" : 36,
            "type" : "SCALAR"
        }
    ],
    "bufferViews" : [
        {
            "buffer" : 0,
            "byteLength" : 8568,
            "byteOffset" : 0
        },
        {
            "buffer" : 0,
            "byteLength" : 8568,
            "byteOffset" : 8568
        },
        {
            "buffer" : 0,
            "byteLength" : 5712,
            "byteOffset" : 17136
        },
        {
            "buffer" : 0,
            "byteLength" : 4800,
            "byteOffset" : 22848
        },
        {
            "buffer" : 0,
            "byteLength" : 2784,
            "byteOffset" : 27648
        },
        {
            "buffer" : 0,
            "byteLength" : 2784,
            "byteOffset" : 30432
        },
        {
            "buffer" : 0,
            "byteLength" : 1856,
            "byteOffset" : 33216
        },
        {
            "buffer" : 0,
            "byteLength" : 1152,
            "byteOffset" : 35072
        },
        {
            "buffer" : 0,
            "byteLength" : 288,
            "byteOffset" : 36224
        },
        {
            "buffer" : 0,
            "byteLength" : 288,
            "byteOffset" : 36512
        },
        {
            "buffer" : 0,
            "byteLength" : 192,
            "byteOffset" : 36800
        },
        {
            "buffer" : 0,
            "byteLength" : 72,
            "byteOffset" : 36992
        }
    ],
    "buffers" : [
        {
            "byteLength" : 37064,
            "uri" : "complex_shape.bin"
        }
    ]
}
