{
    "asset" : {
        "copyright" : "Dr.Santi Nuratch",
        "generator" : "Khronos Blender glTF 2.0 I/O",
        "version" : "2.0"
    },
    "scene" : 0,
    "scenes" : [
        {
            "extras" : {
                "glTF2ExportSettings" : {
                    "export_apply" : 1,
                    "export_copyright" : "Dr.Santi Nuratch",
                    "export_extras" : 1,
                    "export_format" : "GLTF_SEPARATE",
                    "export_selected" : 1
                }
            },
            "name" : "Scene",
            "nodes" : [
                0,
                1
            ]
        }
    ],
    "nodes" : [
        {
            "mesh" : 0,
            "name" : "ActorEcc",
            "scale" : [
                0.5747836828231812,
                0.5747836828231812,
                0.5747836828231812
            ],
            "translation" : [
                -0.086912602186203,
                5.506412982940674,
                0
            ]
        },
        {
            "mesh" : 1,
            "name" : "ColliderCylinder",
            "rotation" : [
                0,
                0,
                0.39013564586639404,
                0.9207574129104614
            ],
            "scale" : [
                1.3470159769058228,
                0.19618532061576843,
                1.3470159769058228
            ],
            "translation" : [
                -0.0496995747089386,
                5.369936466217041,
                -0.4096684455871582
            ]
        }
    ],
    "materials" : [
        {
            "name" : "Orange",
            "pbrMetallicRoughness" : {
                "baseColorFactor" : [
                    0.8000000715255737,
                    0.1249212846159935,
                    0.020419742912054062,
                    1
                ],
                "metallicFactor" : 0.800000011920929,
                "roughnessFactor" : 0.30000001192092896
            }
        },
        {
            "name" : "Blue",
            "pbrMetallicRoughness" : {
                "baseColorFactor" : [
                    0.016833366826176643,
                    0.23243822157382965,
                    0.8000000715255737,
                    1
                ],
                "metallicFactor" : 0.800000011920929,
                "roughnessFactor" : 0.30000001192092896
            }
        }
    ],
    "meshes" : [
        {
            "name" : "eccloco.002",
            "primitives" : [
                {
                    "attributes" : {
                        "POSITION" : 0,
                        "NORMAL" : 1,
                        "TEXCOORD_0" : 2
                    },
                    "indices" : 3,
                    "material" : 0
                },
                {
                    "attributes" : {
                        "POSITION" : 4,
                        "NORMAL" : 5,
                        "TEXCOORD_0" : 6
                    },
                    "indices" : 7,
                    "material" : 1
                }
            ]
        },
        {
            "name" : "Cylinder.001",
            "primitives" : [
                {
                    "attributes" : {
                        "POSITION" : 8,
                        "NORMAL" : 9,
                        "TEXCOORD_0" : 10
                    },
                    "indices" : 11
                }
            ]
        }
    ],
    "accessors" : [
        {
            "bufferView" : 0,
            "componentType" : 5126,
            "count" : 4170,
            "max" : [
                1.7089377641677856,
                1.4689956903457642,
                1.4479353427886963
            ],
            "min" : [
                -1.5216201543807983,
                -1.8503118753433228,
                -2.8514389991760254
            ],
            "type" : "VEC3"
        },
        {
            "bufferView" : 1,
            "componentType" : 5126,
            "count" : 4170,
            "type" : "VEC3"
        },
        {
            "bufferView" : 2,
            "componentType" : 5126,
            "count" : 4170,
            "type" : "VEC2"
        },
        {
            "bufferView" : 3,
            "componentType" : 5123,
            "count" : 24960,
            "type" : "SCALAR"
        },
        {
            "bufferView" : 4,
            "componentType" : 5126,
            "count" : 5842,
            "max" : [
                0.8477985262870789,
                0.579059898853302,
                0.9933869242668152
            ],
            "min" : [
                -0.678844690322876,
                -0.9798799753189087,
                -0.99338299036026
            ],
            "type" : "VEC3"
        },
        {
            "bufferView" : 5,
            "componentType" : 5126,
            "count" : 5842,
            "type" : "VEC3"
        },
        {
            "bufferView" : 6,
            "componentType" : 5126,
            "count" : 5842,
            "type" : "VEC2"
        },
        {
            "bufferView" : 7,
            "componentType" : 5123,
            "count" : 35040,
            "type" : "SCALAR"
        },
        {
            "bufferView" : 8,
            "componentType" : 5126,
            "count" : 192,
            "max" : [
                1,
                1,
                1
            ],
            "min" : [
                -1,
                -1,
                -1
            ],
            "type" : "VEC3"
        },
        {
            "bufferView" : 9,
            "componentType" : 5126,
            "count" : 192,
            "type" : "VEC3"
        },
        {
            "bufferView" : 10,
            "componentType" : 5126,
            "count" : 192,
            "type" : "VEC2"
        },
        {
            "bufferView" : 11,
            "componentType" : 5123,
            "count" : 372,
            "type" : "SCALAR"
        }
    ],
    "bufferViews" : [
        {
            "buffer" : 0,
            "byteLength" : 50040,
            "byteOffset" : 0
        },
        {
            "buffer" : 0,
            "byteLength" : 50040,
            "byteOffset" : 50040
        },
        {
            "buffer" : 0,
            "byteLength" : 33360,
            "byteOffset" : 100080
        },
        {
            "buffer" : 0,
            "byteLength" : 49920,
            "byteOffset" : 133440
        },
        {
            "buffer" : 0,
            "byteLength" : 70104,
            "byteOffset" : 183360
        },
        {
            "buffer" : 0,
            "byteLength" : 70104,
            "byteOffset" : 253464
        },
        {
            "buffer" : 0,
            "byteLength" : 46736,
            "byteOffset" : 323568
        },
        {
            "buffer" : 0,
            "byteLength" : 70080,
            "byteOffset" : 370304
        },
        {
            "buffer" : 0,
            "byteLength" : 2304,
            "byteOffset" : 440384
        },
        {
            "buffer" : 0,
            "byteLength" : 2304,
            "byteOffset" : 442688
        },
        {
            "buffer" : 0,
            "byteLength" : 1536,
            "byteOffset" : 444992
        },
        {
            "buffer" : 0,
            "byteLength" : 744,
            "byteOffset" : 446528
        }
    ],
    "buffers" : [
        {
            "byteLength" : 447272,
            "uri" : "ecc001.bin"
        }
    ]
}
