{
    "asset" : {
        "generator" : "Khronos glTF Blender I/O v1.7.30",
        "version" : "2.0"
    },
    "scene" : 0,
    "scenes" : [
        {
            "name" : "Scene",
            "nodes" : [
                0,
                1
            ]
        }
    ],
    "nodes" : [
        {
            "mesh" : 0,
            "name" : "Suzanne",
            "translation" : [
                0,
                1.0194052457809448,
                0
            ]
        },
        {
            "mesh" : 1,
            "name" : "Cube"
        }
    ],
    "materials" : [
        {
            "doubleSided" : true,
            "name" : "Material",
            "pbrMetallicRoughness" : {
                "baseColorFactor" : [
                    0.16911184787750244,
                    0.8000000715255737,
                    0,
                    1
                ],
                "metallicFactor" : 0,
                "roughnessFactor" : 0.5
            }
        },
        {
            "doubleSided" : true,
            "name" : "Material.001",
            "pbrMetallicRoughness" : {
                "baseColorFactor" : [
                    0,
                    0,
                    0,
                    1
                ],
                "metallicFactor" : 0,
                "roughnessFactor" : 0.5
            }
        },
        {
            "doubleSided" : true,
            "name" : "Material.002",
            "pbrMetallicRoughness" : {
                "baseColorFactor" : [
                    0.8000000715255737,
                    0.003217422403395176,
                    0,
                    1
                ],
                "metallicFactor" : 0,
                "roughnessFactor" : 0.5
            }
        }
    ],
    "meshes" : [
        {
            "name" : "Suzanne",
            "primitives" : [
                {
                    "attributes" : {
                        "POSITION" : 0,
                        "NORMAL" : 1,
                        "TEXCOORD_0" : 2,
                        "TEXCOORD_1" : 3
                    },
                    "indices" : 4,
                    "material" : 0
                },
                {
                    "attributes" : {
                        "POSITION" : 5,
                        "NORMAL" : 6,
                        "TEXCOORD_0" : 7,
                        "TEXCOORD_1" : 8
                    },
                    "indices" : 9,
                    "material" : 1
                },
                {
                    "attributes" : {
                        "POSITION" : 10,
                        "NORMAL" : 11,
                        "TEXCOORD_0" : 12,
                        "TEXCOORD_1" : 13
                    },
                    "indices" : 14,
                    "material" : 2
                }
            ]
        },
        {
            "name" : "Cube",
            "primitives" : [
                {
                    "attributes" : {
                        "POSITION" : 15,
                        "NORMAL" : 16,
                        "TEXCOORD_0" : 17
                    },
                    "indices" : 18
                }
            ]
        }
    ],
    "accessors" : [
        {
            "bufferView" : 0,
            "componentType" : 5126,
            "count" : 497,
            "max" : [
                1.3671875,
                0.984375,
                0.8515625
            ],
            "min" : [
                -1.3671875,
                -0.984375,
                -0.8515625
            ],
            "type" : "VEC3"
        },
        {
            "bufferView" : 1,
            "componentType" : 5126,
            "count" : 497,
            "type" : "VEC3"
        },
        {
            "bufferView" : 2,
            "componentType" : 5126,
            "count" : 497,
            "type" : "VEC2"
        },
        {
            "bufferView" : 3,
            "componentType" : 5126,
            "count" : 497,
            "type" : "VEC2"
        },
        {
            "bufferView" : 4,
            "componentType" : 5123,
            "count" : 2418,
            "type" : "SCALAR"
        },
        {
            "bufferView" : 5,
            "componentType" : 5126,
            "count" : 50,
            "max" : [
                0.5625,
                0.453125,
                0.828125
            ],
            "min" : [
                -0.5625,
                0.03125,
                0.671875
            ],
            "type" : "VEC3"
        },
        {
            "bufferView" : 6,
            "componentType" : 5126,
            "count" : 50,
            "type" : "VEC3"
        },
        {
            "bufferView" : 7,
            "componentType" : 5126,
            "count" : 50,
            "type" : "VEC2"
        },
        {
            "bufferView" : 8,
            "componentType" : 5126,
            "count" : 50,
            "type" : "VEC2"
        },
        {
            "bufferView" : 9,
            "componentType" : 5123,
            "count" : 240,
            "type" : "SCALAR"
        },
        {
            "bufferView" : 10,
            "componentType" : 5126,
            "count" : 65,
            "max" : [
                0.859375,
                0.984375,
                0.828125
            ],
            "min" : [
                -0.859375,
                -0.875,
                -0.203125
            ],
            "type" : "VEC3"
        },
        {
            "bufferView" : 11,
            "componentType" : 5126,
            "count" : 65,
            "type" : "VEC3"
        },
        {
            "bufferView" : 12,
            "componentType" : 5126,
            "count" : 65,
            "type" : "VEC2"
        },
        {
            "bufferView" : 13,
            "componentType" : 5126,
            "count" : 65,
            "type" : "VEC2"
        },
        {
            "bufferView" : 14,
            "componentType" : 5123,
            "count" : 246,
            "type" : "SCALAR"
        },
        {
            "bufferView" : 15,
            "componentType" : 5126,
            "count" : 24,
            "max" : [
                8.80424976348877,
                0.06558924913406372,
                8.80424976348877
            ],
            "min" : [
                -8.80424976348877,
                -0.06558924913406372,
                -8.80424976348877
            ],
            "type" : "VEC3"
        },
        {
            "bufferView" : 16,
            "componentType" : 5126,
            "count" : 24,
            "type" : "VEC3"
        },
        {
            "bufferView" : 17,
            "componentType" : 5126,
            "count" : 24,
            "type" : "VEC2"
        },
        {
            "bufferView" : 18,
            "componentType" : 5123,
            "count" : 36,
            "type" : "SCALAR"
        }
    ],
    "bufferViews" : [
        {
            "buffer" : 0,
            "byteLength" : 5964,
            "byteOffset" : 0
        },
        {
            "buffer" : 0,
            "byteLength" : 5964,
            "byteOffset" : 5964
        },
        {
            "buffer" : 0,
            "byteLength" : 3976,
            "byteOffset" : 11928
        },
        {
            "buffer" : 0,
            "byteLength" : 3976,
            "byteOffset" : 15904
        },
        {
            "buffer" : 0,
            "byteLength" : 4836,
            "byteOffset" : 19880
        },
        {
            "buffer" : 0,
            "byteLength" : 600,
            "byteOffset" : 24716
        },
        {
            "buffer" : 0,
            "byteLength" : 600,
            "byteOffset" : 25316
        },
        {
            "buffer" : 0,
            "byteLength" : 400,
            "byteOffset" : 25916
        },
        {
            "buffer" : 0,
            "byteLength" : 400,
            "byteOffset" : 26316
        },
        {
            "buffer" : 0,
            "byteLength" : 480,
            "byteOffset" : 26716
        },
        {
            "buffer" : 0,
            "byteLength" : 780,
            "byteOffset" : 27196
        },
        {
            "buffer" : 0,
            "byteLength" : 780,
            "byteOffset" : 27976
        },
        {
            "buffer" : 0,
            "byteLength" : 520,
            "byteOffset" : 28756
        },
        {
            "buffer" : 0,
            "byteLength" : 520,
            "byteOffset" : 29276
        },
        {
            "buffer" : 0,
            "byteLength" : 492,
            "byteOffset" : 29796
        },
        {
            "buffer" : 0,
            "byteLength" : 288,
            "byteOffset" : 30288
        },
        {
            "buffer" : 0,
            "byteLength" : 288,
            "byteOffset" : 30576
        },
        {
            "buffer" : 0,
            "byteLength" : 192,
            "byteOffset" : 30864
        },
        {
            "buffer" : 0,
            "byteLength" : 72,
            "byteOffset" : 31056
        }
    ],
    "buffers" : [
        {
            "byteLength" : 31128,
            "uri" : "green_monkey.bin"
        }
    ]
}
