{
    "asset" : {
        "generator" : "Khronos glTF Blender I/O v1.7.33",
        "version" : "2.0"
    },
    "scene" : 0,
    "scenes" : [
        {
            "name" : "Scene",
            "nodes" : [
                1
            ]
        }
    ],
    "nodes" : [
        {
            "mesh" : 0,
            "name" : "sofa",
            "rotation" : [
                0.6315749883651733,
                0,
                0,
                0.7753148078918457
            ],
            "translation" : [
                0,
                0.4317001402378082,
                -0.47559428215026855
            ]
        },
        {
            "children" : [
                0
            ],
            "name" : "Sofa"
        }
    ],
    "materials" : [
        {
            "doubleSided" : true,
            "name" : "leather",
            "normalTexture" : {
                "index" : 0,
                "scale" : 0.699999988079071
            },
            "pbrMetallicRoughness" : {
                "baseColorTexture" : {
                    "index" : 1
                },
                "metallicFactor" : 0,
                "roughnessFactor" : 0.8153846263885498
            }
        }
    ],
    "meshes" : [
        {
            "name" : "Cube.007",
            "primitives" : [
                {
                    "attributes" : {
                        "POSITION" : 0,
                        "NORMAL" : 1,
                        "TEXCOORD_0" : 2
                    },
                    "indices" : 3,
                    "material" : 0
                }
            ]
        }
    ],
    "textures" : [
        {
            "sampler" : 0,
            "source" : 0
        },
        {
            "sampler" : 0,
            "source" : 1
        }
    ],
    "images" : [
        {
            "mimeType" : "image/png",
            "name" : "NormalMap",
            "uri" : "NormalMap.png"
        },
        {
            "mimeType" : "image/png",
            "name" : "leather-red",
            "uri" : "leather-red.png"
        }
    ],
    "accessors" : [
        {
            "bufferView" : 0,
            "componentType" : 5126,
            "count" : 82798,
            "max" : [
                1,
                0.7512950897216797,
                0.5729867219924927
            ],
            "min" : [
                -1,
                -0.137155681848526,
                -0.3267923891544342
            ],
            "type" : "VEC3"
        },
        {
            "bufferView" : 1,
            "componentType" : 5126,
            "count" : 82798,
            "type" : "VEC3"
        },
        {
            "bufferView" : 2,
            "componentType" : 5126,
            "count" : 82798,
            "type" : "VEC2"
        },
        {
            "bufferView" : 3,
            "componentType" : 5125,
            "count" : 422256,
            "type" : "SCALAR"
        }
    ],
    "bufferViews" : [
        {
            "buffer" : 0,
            "byteLength" : 993576,
            "byteOffset" : 0
        },
        {
            "buffer" : 0,
            "byteLength" : 993576,
            "byteOffset" : 993576
        },
        {
            "buffer" : 0,
            "byteLength" : 662384,
            "byteOffset" : 1987152
        },
        {
            "buffer" : 0,
            "byteLength" : 1689024,
            "byteOffset" : 2649536
        }
    ],
    "samplers" : [
        {
            "magFilter" : 9729,
            "minFilter" : 9987
        }
    ],
    "buffers" : [
        {
            "byteLength" : 4338560,
            "uri" : "cube2.bin"
        }
    ]
}
